<mxfile host="app.diagrams.net" agent="Mozilla/5.0 (X11; Linux x86_64; rv:135.0) Gecko/20100101 Firefox/135.0" version="26.0.11">
  <diagram name="PÃ¡gina-1" id="xqBSCiuC1GgvGjy0rTId">
    <mxGraphModel dx="550" dy="372" grid="1" gridSize="10" guides="1" tooltips="1" connect="1" arrows="1" fold="1" page="1" pageScale="1" pageWidth="850" pageHeight="1100" math="0" shadow="0">
      <root>
        <mxCell id="0" />
        <mxCell id="1" parent="0" />
        <mxCell id="uZzzh_EuWOpTrdh_9r9l-1" value="Alumno" style="swimlane;fontStyle=1;align=center;verticalAlign=top;childLayout=stackLayout;horizontal=1;startSize=26;horizontalStack=0;resizeParent=1;resizeParentMax=0;resizeLast=0;collapsible=1;marginBottom=0;whiteSpace=wrap;html=1;" vertex="1" parent="1">
          <mxGeometry x="340" y="260" width="200" height="200" as="geometry" />
        </mxCell>
        <mxCell id="uZzzh_EuWOpTrdh_9r9l-2" value="&lt;div&gt;- nombre: String&lt;/div&gt;&lt;div&gt;- num_Control: int&lt;/div&gt;&lt;div&gt;- promedio: double&lt;/div&gt;&lt;div&gt;- carrera: String&lt;/div&gt;" style="text;strokeColor=none;fillColor=none;align=left;verticalAlign=top;spacingLeft=4;spacingRight=4;overflow=hidden;rotatable=0;points=[[0,0.5],[1,0.5]];portConstraint=eastwest;whiteSpace=wrap;html=1;" vertex="1" parent="uZzzh_EuWOpTrdh_9r9l-1">
          <mxGeometry y="26" width="200" height="74" as="geometry" />
        </mxCell>
        <mxCell id="uZzzh_EuWOpTrdh_9r9l-3" value="" style="line;strokeWidth=1;fillColor=none;align=left;verticalAlign=middle;spacingTop=-1;spacingLeft=3;spacingRight=3;rotatable=0;labelPosition=right;points=[];portConstraint=eastwest;strokeColor=inherit;" vertex="1" parent="uZzzh_EuWOpTrdh_9r9l-1">
          <mxGeometry y="100" width="200" height="8" as="geometry" />
        </mxCell>
        <mxCell id="uZzzh_EuWOpTrdh_9r9l-4" value="&lt;div&gt;+ cargarMateria(): void&lt;/div&gt;&lt;div&gt;+ modificarStatus(): boolean&lt;/div&gt;&lt;div&gt;+ revisarHistorial(): void&lt;/div&gt;&lt;div&gt;+ obtenerPromedio(double): double&lt;/div&gt;&lt;div&gt;&lt;br&gt;&lt;/div&gt;" style="text;strokeColor=none;fillColor=none;align=left;verticalAlign=top;spacingLeft=4;spacingRight=4;overflow=hidden;rotatable=0;points=[[0,0.5],[1,0.5]];portConstraint=eastwest;whiteSpace=wrap;html=1;" vertex="1" parent="uZzzh_EuWOpTrdh_9r9l-1">
          <mxGeometry y="108" width="200" height="92" as="geometry" />
        </mxCell>
      </root>
    </mxGraphModel>
  </diagram>
</mxfile>
